<svg aria-hidden="true" style="position: absolute; width: 0; height: 0; overflow: hidden;" version="1.1" xmlns="http://www.w3.org/2000/svg" xmlns:xlink="http://www.w3.org/1999/xlink">
<defs>
<symbol id="icon-logo-big" viewBox="0 0 32 32">
<path fill="#161616" style="fill: var(--color1, #161616)" d="M26.667 0h-21.333c-2.946 0-5.333 2.388-5.333 5.333v0 21.333c0 2.946 2.388 5.333 5.333 5.333v0h21.333c2.946 0 5.333-2.388 5.333-5.333v0-21.333c0-2.946-2.388-5.333-5.333-5.333v0z"></path>
<path fill="#fff" style="fill: var(--color2, #fff)" d="M13.331 23.027c0.245-1.271 0.453-2.61 0.747-3.949 0.145-0.7-0.031-0.999-0.815-0.946s-1.657 0.027-2.489 0c-0.833-0.027-0.983-0.446-0.503-1.044 2.363-2.918 4.753-5.8 7.134-8.673 0.267-0.326 0.575-0.557 1.013-0.312 0.44 0.245 0.349 0.549 0.277 0.915-0.263 1.338-0.48 2.677-0.769 3.989-0.149 0.678 0.045 0.919 0.751 0.892 0.318-0.017 0.69-0.027 1.064-0.027s0.746 0.010 1.115 0.029l-0.052-0.002c0.403 0 0.933-0.209 1.141 0.339s-0.231 0.781-0.453 1.107c-1.327 1.642-2.227 2.729-3.135 3.81l0.383-0.468c0.598-0.771-0.727 0.808-2.049 2.39l-2.003 2.464c-0.263 0.317-0.557 0.571-1.005 0.411s-0.353-0.54-0.353-0.924z"></path>
</symbol>
<symbol id="icon-logo-dark" viewBox="0 0 32 32">
<path fill="#1f1f1f" style="fill: var(--color5, #1f1f1f)" d="M24 0h-16c-4.418 0-8 3.582-8 8v0 16c0 4.418 3.582 8 8 8v0h16c4.418 0 8-3.582 8-8v0-16c0-4.418-3.582-8-8-8v0z"></path>
<path fill="#fff" style="fill: var(--color2, #fff)" d="M13.331 23.027c0.245-1.272 0.453-2.61 0.747-3.949 0.145-0.7-0.031-1-0.814-0.946-0.784 0.054-1.657 0.027-2.49 0-0.833-0.026-0.982-0.446-0.502-1.044 2.362-2.918 4.752-5.8 7.133-8.673 0.267-0.326 0.575-0.558 1.014-0.313 0.44 0.246 0.349 0.55 0.276 0.915-0.262 1.339-0.48 2.677-0.77 3.989-0.149 0.678 0.046 0.919 0.752 0.892 0.318-0.017 0.69-0.027 1.064-0.027s0.746 0.010 1.116 0.029l-0.052-0.002c0.403 0 0.932-0.21 1.14 0.34 0.209 0.548-0.23 0.78-0.452 1.106-1.327 1.642-2.227 2.729-3.135 3.81l0.383-0.468c0.629-0.809-0.696 0.77-2.018 2.352l-2.034 2.502c-0.262 0.317-0.556 0.571-1.005 0.41-0.448-0.16-0.353-0.54-0.353-0.923z"></path>
</symbol>
<symbol id="icon-logo-violet" viewBox="0 0 32 32">
<path fill="#ecedfd" style="fill: var(--color3, #ecedfd)" d="M24 0h-16c-4.418 0-8 3.582-8 8v0 16c0 4.418 3.582 8 8 8v0h16c4.418 0 8-3.582 8-8v0-16c0-4.418-3.582-8-8-8v0z"></path>
<path fill="#5255bc" style="fill: var(--color4, #5255bc)" d="M13.331 23.027c0.245-1.272 0.453-2.61 0.747-3.949 0.145-0.7-0.031-1-0.814-0.946-0.784 0.054-1.657 0.027-2.49 0-0.833-0.026-0.982-0.446-0.502-1.044 2.362-2.918 4.752-5.8 7.133-8.673 0.267-0.326 0.575-0.558 1.014-0.313 0.44 0.246 0.349 0.55 0.276 0.915-0.262 1.339-0.48 2.677-0.77 3.989-0.149 0.678 0.046 0.919 0.752 0.892 0.318-0.017 0.69-0.027 1.064-0.027s0.746 0.010 1.116 0.029l-0.052-0.002c0.403 0 0.932-0.21 1.14 0.34 0.209 0.548-0.23 0.78-0.452 1.106-1.327 1.642-2.227 2.729-3.135 3.81l0.383-0.468c-1.361 1.624-2.712 3.242-4.052 4.854-0.262 0.317-0.556 0.571-1.005 0.41-0.448-0.16-0.353-0.54-0.353-0.923z"></path>
</symbol>
<symbol id="icon-menu" viewBox="0 0 32 32">
<path stroke-linejoin="round" stroke-linecap="round" stroke-miterlimit="4" stroke-width="2.6667" d="M4 16h24M4 8h24M4 24h24"></path>
</symbol>
<symbol id="icon-background-image" viewBox="0 0 32 32">
<path stroke-linejoin="round" stroke-linecap="round" stroke-miterlimit="4" stroke-width="2" d="M25.334 28h1.346c1.296 0 1.942 0 2.3-0.27 0.302-0.23 0.501-0.582 0.526-0.98l0-0.004c0.028-0.446-0.332-0.986-1.050-2.062l-4.014-6.020c-0.594-0.892-0.89-1.336-1.264-1.492-0.151-0.064-0.327-0.102-0.511-0.102s-0.36 0.037-0.52 0.105l0.009-0.003c-0.374 0.156-0.67 0.6-1.264 1.49l-0.992 1.49M25.334 28l-10.246-14.8c-0.59-0.85-0.884-1.276-1.252-1.426-0.149-0.062-0.321-0.098-0.502-0.098s-0.354 0.036-0.511 0.101l0.009-0.003c-0.368 0.15-0.664 0.576-1.252 1.426l-7.93 11.452c-0.75 1.084-1.126 1.626-1.104 2.078 0.020 0.392 0.21 0.756 0.522 0.996 0.36 0.274 1.020 0.274 2.336 0.274h19.93zM28 8c0 2.209-1.791 4-4 4s-4-1.791-4-4v0c0-2.209 1.791-4 4-4s4 1.791 4 4v0z"></path>
</symbol>
<symbol id="icon-arrow-circle-broken-right" viewBox="0 0 32 32">
<path stroke-linejoin="round" stroke-linecap="round" stroke-miterlimit="4" stroke-width="2.6" d="M4.45 9.334c2.348-4.014 6.638-6.667 11.548-6.667 7.364 0 13.334 5.97 13.334 13.334s-5.97 13.334-13.334 13.334c-4.909 0-9.199-2.653-11.514-6.604l-0.034-0.063"></path>
<path stroke-linejoin="round" stroke-linecap="round" stroke-miterlimit="4" stroke-width="2.6" d="M16 21.334l5.334-5.334-5.334-5.334M2.666 16h18.668"></path>
</symbol>
<symbol id="icon-bell" viewBox="0 0 32 32">
<path stroke-linejoin="round" stroke-linecap="round" stroke-miterlimit="4" stroke-width="3" d="M12.472 28c0.94 0.83 2.176 1.334 3.528 1.334s2.588-0.504 3.528-1.334M24 10.666c0-4.418-3.582-8-8-8s-8 3.582-8 8v0c0 4.12-1.040 6.942-2.2 8.808-0.98 1.574-1.47 2.36-1.452 2.58 0.020 0.244 0.072 0.336 0.268 0.48 0.176 0.132 0.974 0.132 2.57 0.132h17.628c1.596 0 2.394 0 2.57-0.13 0.196-0.146 0.248-0.24 0.268-0.48 0.018-0.22-0.472-1.008-1.452-2.582-1.16-1.866-2.2-4.686-2.2-8.808z"></path>
</symbol>
<symbol id="icon-colors" viewBox="0 0 32 32">
<path stroke-linejoin="round" stroke-linecap="round" stroke-miterlimit="4" stroke-width="2.6667" d="M16 27.296c1.408 1.262 3.278 2.033 5.328 2.033 4.418 0 8-3.582 8-8 0-3.667-2.467-6.758-5.832-7.703l-0.056-0.014M8.56 13.612c-3.418 0.962-5.882 4.052-5.882 7.717 0 4.415 3.575 7.995 7.988 8.004h0.001c0.001 0 0.002 0 0.003 0 4.418 0 8-3.582 8-8 0-1.061-0.207-2.074-0.582-3.001l0.019 0.054M24 10.667c0 4.418-3.582 8-8 8s-8-3.582-8-8v0c0-4.418 3.582-8 8-8s8 3.582 8 8v0z"></path>
</symbol>
<symbol id="icon-container" viewBox="0 0 32 32">
<path stroke-linejoin="round" stroke-linecap="round" stroke-miterlimit="4" stroke-width="2.6667" d="M27.333 9.703l-11.333 6.297M16 16l-11.333-6.297M16 16v12.667M28 21.412v-10.823c0-0.457 0-0.684-0.068-0.889-0.063-0.188-0.16-0.35-0.285-0.486l0.001 0.001c-0.146-0.158-0.347-0.268-0.747-0.491l-9.867-5.481c-0.377-0.21-0.565-0.315-0.764-0.356-0.081-0.017-0.174-0.027-0.269-0.027s-0.188 0.010-0.278 0.029l0.009-0.002c-0.201 0.041-0.391 0.146-0.768 0.356l-9.867 5.481c-0.398 0.222-0.599 0.332-0.745 0.491-0.124 0.135-0.221 0.297-0.282 0.476l-0.003 0.009c-0.068 0.204-0.068 0.432-0.068 0.889v10.823c0 0.457 0 0.684 0.068 0.889 0.063 0.188 0.16 0.35 0.285 0.486l-0.001-0.001c0.146 0.158 0.347 0.268 0.747 0.491l9.867 5.481c0.377 0.21 0.565 0.316 0.764 0.356 0.178 0.037 0.361 0.037 0.539 0 0.201-0.041 0.391-0.146 0.768-0.356l9.867-5.481c0.398-0.222 0.599-0.332 0.745-0.491 0.124-0.135 0.221-0.297 0.282-0.476l0.003-0.009c0.068-0.204 0.068-0.432 0.068-0.889z"></path>
</symbol>
<symbol id="icon-eye" viewBox="0 0 32 32">
<path d="M31.847 15.449c-0.254-0.422-6.32-10.332-15.847-10.332s-15.594 9.91-15.847 10.332c-0.204 0.339-0.204 0.763 0 1.101 0.254 0.422 6.32 10.332 15.847 10.332s15.594-9.91 15.847-10.332c0.204-0.339 0.204-0.763 0-1.101zM16 24.745c-7.115 0-12.281-6.749-13.653-8.746 1.37-2 6.521-8.744 13.653-8.744 7.115 0 12.281 6.749 13.653 8.746-1.37 2-6.521 8.744-13.653 8.744z"></path>
<path d="M16 8.797c-3.972 0-7.203 3.231-7.203 7.203s3.231 7.202 7.203 7.202c3.971 0 7.203-3.231 7.203-7.202s-3.231-7.203-7.203-7.203zM16 21.065c-2.793 0-5.065-2.272-5.065-5.065s2.272-5.065 5.065-5.065 5.065 2.272 5.065 5.065c0 2.793-2.272 5.065-5.065 5.065z"></path>
<path d="M16 13.24c-1.525 0-2.761 1.235-2.761 2.76s1.236 2.759 2.761 2.759c1.525 0 2.761-1.235 2.761-2.759s-1.236-2.76-2.761-2.76z"></path>
</symbol>
<symbol id="icon-filter" viewBox="0 0 32 32">
<path stroke-linejoin="round" stroke-linecap="round" stroke-miterlimit="4" stroke-width="3" d="M29.334 4h-26.668l10.668 12.614v8.72l5.332 2.666v-11.386l10.668-12.614z"></path>
</symbol>
<symbol id="icon-help-circle" viewBox="0 0 32 32">
<path stroke-linejoin="round" stroke-linecap="round" stroke-miterlimit="4" stroke-width="2.88" d="M16 29.333c7.364 0 13.333-5.969 13.333-13.333s-5.969-13.333-13.333-13.333v0c-7.364 0-13.333 5.969-13.333 13.333s5.969 13.333 13.333 13.333v0z"></path>
<path stroke-linejoin="round" stroke-linecap="round" stroke-miterlimit="4" stroke-width="2.88" d="M12.12 12c0.564-1.569 2.040-2.671 3.773-2.671 2.209 0 4 1.791 4 4 0 0.001 0 0.003 0 0.004v-0c0 2.667-4 4-4 4M16 22.667h0.019"></path>
</symbol>
<symbol id="icon-hexagon" viewBox="0 0 32 32">
<path stroke-linejoin="round" stroke-linecap="round" stroke-miterlimit="4" stroke-width="2.6667" d="M14.964 3.243c0.379-0.21 0.569-0.315 0.768-0.356 0.081-0.017 0.173-0.027 0.268-0.027s0.188 0.010 0.277 0.029l-0.009-0.002c0.201 0.041 0.391 0.146 0.768 0.356l9.867 5.481c0.398 0.222 0.599 0.332 0.745 0.491 0.124 0.135 0.221 0.297 0.282 0.476l0.003 0.009c0.068 0.204 0.068 0.432 0.068 0.889v10.823c0 0.457 0 0.684-0.068 0.889-0.063 0.188-0.16 0.35-0.285 0.486l0.001-0.001c-0.146 0.158-0.347 0.268-0.747 0.491l-9.867 5.481c-0.377 0.21-0.565 0.316-0.764 0.356-0.081 0.017-0.174 0.027-0.269 0.027s-0.188-0.010-0.278-0.029l0.009 0.002c-0.201-0.041-0.391-0.146-0.768-0.356l-9.867-5.481c-0.398-0.222-0.599-0.332-0.745-0.491-0.124-0.135-0.221-0.297-0.282-0.476l-0.003-0.009c-0.068-0.204-0.068-0.432-0.068-0.889v-10.823c0-0.457 0-0.684 0.068-0.889 0.063-0.188 0.16-0.35 0.285-0.486l-0.001 0.001c0.146-0.158 0.347-0.268 0.747-0.491l9.867-5.481z"></path>
</symbol>
<symbol id="icon-lightning" viewBox="0 0 32 32">
<path stroke-linejoin="round" stroke-linecap="round" stroke-miterlimit="4" stroke-width="2.6667" d="M18.999 2.667h-7.675c-0.238 0-0.357 0-0.462 0.036-0.098 0.034-0.182 0.087-0.251 0.155l0-0c-0.080 0.078-0.133 0.185-0.24 0.4l-5.6 11.2c-0.256 0.51-0.384 0.766-0.354 0.974 0.029 0.186 0.131 0.345 0.275 0.447l0.002 0.001c0.172 0.121 0.46 0.121 1.031 0.121h8.274l-4 13.333 16.258-16.86c0.548-0.569 0.821-0.853 0.837-1.095 0.001-0.013 0.001-0.028 0.001-0.044 0-0.204-0.091-0.386-0.235-0.508l-0.001-0.001c-0.187-0.158-0.581-0.158-1.371-0.158h-9.49l2.999-8z"></path>
</symbol>
<symbol id="icon-loading" viewBox="0 0 32 32">
<path stroke-linejoin="round" stroke-linecap="round" stroke-miterlimit="4" stroke-width="2.6667" d="M4.453 22.667c-0.536-0.913-0.853-2.011-0.853-3.183 0-2.183 1.099-4.11 2.775-5.256l0.022-0.014 0.004-0.004c1-0.684 2.235-1.092 3.566-1.092 1.408 0 2.709 0.457 3.764 1.23l-0.018-0.012 4.576 3.328c1.036 0.761 2.337 1.217 3.745 1.217 1.331 0 2.567-0.408 3.589-1.107l-0.022 0.014 0.004-0.002c1.698-1.16 2.797-3.086 2.797-5.269 0-1.173-0.317-2.271-0.871-3.214l0.016 0.030M22.67 27.547c-0.913 0.536-2.010 0.852-3.181 0.852-2.184 0-4.112-1.1-5.258-2.777l-0.014-0.022-0.004-0.004c-0.684-1-1.093-2.236-1.093-3.567 0-1.407 0.457-2.708 1.229-3.763l-0.012 0.018 3.328-4.576c0.761-1.037 1.218-2.338 1.218-3.746 0-1.331-0.408-2.566-1.106-3.588l0.014 0.022-0.005-0.002c-1.161-1.696-3.087-2.795-5.269-2.795-1.172 0-2.271 0.317-3.214 0.87l0.030-0.016M25.428 6.572c2.413 2.413 3.905 5.746 3.905 9.428s-1.492 7.015-3.905 9.428l0-0c-2.413 2.413-5.746 3.905-9.428 3.905s-7.015-1.492-9.428-3.905l0 0c-2.413-2.413-3.905-5.746-3.905-9.428s1.492-7.015 3.905-9.428l-0 0c2.413-2.413 5.746-3.905 9.428-3.905s7.015 1.492 9.428 3.905l-0-0z"></path>
</symbol>
<symbol id="icon-login" viewBox="0 0 32 32">
<path stroke-linejoin="round" stroke-linecap="round" stroke-miterlimit="4" stroke-width="1.5" d="M11.867 10.080c0.413-4.8 2.88-6.76 8.28-6.76h0.173c5.96 0 8.347 2.387 8.347 8.347v8.693c0 5.96-2.387 8.347-8.347 8.347h-0.173c-5.36 0-7.827-1.934-8.267-6.654M2.667 16h17.173"></path>
<path stroke-linejoin="round" stroke-linecap="round" stroke-miterlimit="4" stroke-width="1.5" d="M16.867 11.533l4.466 4.467-4.466 4.467"></path>
</symbol>
<symbol id="icon-pencil" viewBox="0 0 32 32">
<path stroke-linejoin="round" stroke-linecap="round" stroke-miterlimit="4" stroke-width="2.6" d="M3.334 28.666l7.4-2.844c0.472-0.182 0.708-0.274 0.93-0.392 0.196-0.106 0.384-0.228 0.56-0.366 0.2-0.154 0.378-0.332 0.736-0.69l15.040-15.040c0.703-0.686 1.138-1.642 1.138-2.7 0-2.083-1.689-3.772-3.772-3.772-1.058 0-2.014 0.436-2.699 1.137l-15.041 15.041c-0.243 0.23-0.468 0.47-0.679 0.723l-0.011 0.013c-0.128 0.163-0.248 0.346-0.354 0.539l-0.010 0.021c-0.12 0.22-0.21 0.46-0.392 0.932l-2.846 7.4zM3.334 28.666l2.744-7.134c0.196-0.51 0.294-0.766 0.462-0.882 0.106-0.075 0.238-0.12 0.381-0.12 0.044 0 0.087 0.004 0.129 0.012l-0.004-0.001c0.2 0.040 0.394 0.232 0.78 0.62l3.014 3.010c0.386 0.388 0.58 0.58 0.62 0.782 0.008 0.038 0.012 0.081 0.012 0.125 0 0.143-0.045 0.275-0.121 0.383l0.001-0.002c-0.118 0.168-0.374 0.266-0.884 0.462l-7.134 2.744z"></path>
</symbol>
<symbol id="icon-plus" viewBox="0 0 32 32">
<path stroke-linejoin="round" stroke-linecap="round" stroke-miterlimit="4" stroke-width="2.88" d="M16 6.667v18.666M6.667 16h18.666"></path>
</symbol>
<symbol id="icon-Project" viewBox="0 0 32 32">
<path stroke-linejoin="miter" stroke-linecap="butt" stroke-miterlimit="4" stroke-width="2.6667" d="M4.396 6.978c0.309-1.282 1.299-2.272 2.558-2.576l0.024-0.005c0.507-0.124 1.090-0.196 1.689-0.196s1.182 0.071 1.739 0.206l-0.050-0.010c1.282 0.309 2.272 1.299 2.576 2.558l0.005 0.024c0.124 0.507 0.196 1.090 0.196 1.689s-0.071 1.182-0.206 1.739l0.010-0.050c-0.309 1.282-1.299 2.272-2.558 2.576l-0.024 0.005c-0.507 0.124-1.090 0.196-1.689 0.196s-1.182-0.071-1.739-0.206l0.050 0.010c-1.282-0.309-2.272-1.299-2.577-2.558l-0.005-0.024c-0.124-0.507-0.196-1.090-0.196-1.689s0.071-1.182 0.206-1.739l-0.010 0.050zM4.396 21.644c0.309-1.282 1.299-2.273 2.558-2.576l0.024-0.005c0.507-0.124 1.090-0.196 1.689-0.196s1.182 0.071 1.739 0.206l-0.050-0.010c1.282 0.309 2.272 1.299 2.576 2.558l0.005 0.024c0.124 0.507 0.195 1.090 0.195 1.689s-0.071 1.182-0.206 1.739l0.010-0.050c-0.309 1.282-1.299 2.273-2.558 2.576l-0.024 0.005c-0.507 0.124-1.090 0.196-1.689 0.196s-1.182-0.071-1.739-0.206l0.050 0.010c-1.282-0.309-2.272-1.299-2.577-2.558l-0.005-0.024c-0.124-0.507-0.195-1.090-0.195-1.689s0.071-1.182 0.206-1.739l-0.010 0.050zM19.063 6.978c0.309-1.282 1.299-2.272 2.558-2.576l0.024-0.005c0.507-0.124 1.090-0.195 1.689-0.195s1.182 0.071 1.739 0.206l-0.050-0.010c1.282 0.309 2.273 1.299 2.576 2.558l0.005 0.024c0.124 0.507 0.196 1.090 0.196 1.689s-0.071 1.182-0.206 1.739l0.010-0.050c-0.309 1.282-1.299 2.272-2.558 2.576l-0.024 0.005c-0.507 0.124-1.090 0.195-1.689 0.195s-1.182-0.071-1.739-0.206l0.050 0.010c-1.282-0.309-2.273-1.299-2.576-2.558l-0.005-0.024c-0.124-0.507-0.196-1.090-0.196-1.689s0.071-1.182 0.206-1.739l-0.010 0.050zM19.063 21.644c0.308-1.282 1.299-2.273 2.558-2.576l0.024-0.005c0.507-0.124 1.090-0.196 1.689-0.196s1.182 0.071 1.739 0.206l-0.050-0.010c1.28 0.3 2.281 1.301 2.581 2.581 0.124 0.507 0.196 1.090 0.196 1.689s-0.071 1.182-0.206 1.739l0.010-0.050c-0.308 1.282-1.299 2.273-2.558 2.576l-0.024 0.005c-0.507 0.124-1.090 0.196-1.689 0.196s-1.182-0.071-1.739-0.206l0.050 0.010c-1.282-0.308-2.273-1.299-2.576-2.558l-0.005-0.024c-0.124-0.507-0.196-1.090-0.196-1.689s0.071-1.182 0.206-1.739l-0.010 0.050z"></path>
</symbol>
<symbol id="icon-puzzle-piece" viewBox="0 0 32 32">
<path stroke-linejoin="round" stroke-linecap="round" stroke-miterlimit="4" stroke-width="2.6667" d="M16 2.667l4.8 4.8c3.2-8.4 12.133 0.533 3.733 3.733l4.8 4.8-4.8 4.8c-3.2-8.4-12.133 0.533-3.733 3.733l-4.8 4.8-4.8-4.8c-3.2 8.4-12.133-0.533-3.733-3.733l-4.8-4.8 4.8-4.8c3.2 8.4 12.133-0.533 3.733-3.733l4.8-4.8z"></path>
</symbol>
<symbol id="icon-star" viewBox="0 0 32 32">
<path stroke-linejoin="round"  stroke-linecap="round" stroke-miterlimit="4" stroke-width="2.6667" d="M16 2.667l2.683 6.974c0.375 0.978 0.564 1.467 0.857 1.877 0.258 0.364 0.578 0.684 0.942 0.942 0.409 0.293 0.9 0.48 1.877 0.857l6.974 2.683-6.974 2.683c-0.978 0.375-1.467 0.564-1.877 0.857-0.367 0.263-0.679 0.575-0.934 0.93l-0.008 0.012c-0.293 0.409-0.48 0.9-0.857 1.877l-2.683 6.974-2.683-6.974c-0.375-0.978-0.564-1.467-0.857-1.877-0.263-0.367-0.575-0.679-0.93-0.934l-0.012-0.008c-0.409-0.293-0.9-0.48-1.877-0.857l-6.974-2.683 6.974-2.683c0.978-0.375 1.467-0.564 1.877-0.857 0.367-0.263 0.679-0.575 0.934-0.93l0.008-0.012c0.293-0.409 0.48-0.9 0.857-1.877l2.683-6.974z"></path>
</symbol>
<symbol id="icon-trash" viewBox="0 0 32 32">
<path stroke-linejoin="round" stroke-linecap="round" stroke-miterlimit="4" stroke-width="2.6" d="M12 4h8M4 8h24M6.666 8l0.8 12.018c0.15 2.23 0.224 3.346 0.59 4.242 0.673 1.625 1.992 2.868 3.628 3.424l0.042 0.012c0.92 0.304 2.038 0.304 4.274 0.304v0c2.236 0 3.354 0 4.272-0.304 1.679-0.568 2.999-1.81 3.657-3.396l0.015-0.040c0.364-0.896 0.44-2.012 0.588-4.242l0.8-12.018"></path>
</symbol>
<symbol id="icon-eye-close" viewBox="0 0 32 32">
<path d="M29.447 15.2l-0.006-0.006c-1.137-2.397-2.5-4.334-4.084-5.813l-1.584 1.588c1.366 1.256 2.547 2.928 3.566 5.028-2.603 5.384-6.294 7.941-11.338 7.941-1.603 0-3.072-0.259-4.412-0.784l-1.709 1.709c1.828 0.881 3.866 1.325 6.122 1.325 6.006 0 10.481-3.141 13.444-9.384 0.241-0.506 0.241-1.094 0.003-1.603zM27.447 4.819l-1.325-1.325c-0.097-0.097-0.256-0.097-0.353 0l-3.65 3.647c-1.825-0.884-3.863-1.328-6.119-1.328-6.006 0-10.481 3.141-13.444 9.384v0.003c-0.241 0.506-0.241 1.1 0 1.609 1.138 2.397 2.5 4.334 4.084 5.816l-3.147 3.141c-0.097 0.097-0.097 0.256 0 0.353l1.325 1.325c0.097 0.097 0.256 0.097 0.353 0l22.275-22.275c0.097-0.094 0.097-0.253 0-0.35zM12.466 16.794c-0.059-0.256-0.091-0.522-0.091-0.794 0-1.934 1.566-3.5 3.5-3.5 0.272 0 0.541 0.031 0.794 0.091l-4.203 4.203zM18.231 11.028c-0.716-0.338-1.512-0.528-2.356-0.528-3.037 0-5.5 2.463-5.5 5.5 0 0.844 0.191 1.641 0.528 2.356l-2.675 2.675c-1.366-1.256-2.547-2.928-3.566-5.028 2.606-5.384 6.297-7.941 11.338-7.941 1.603 0 3.072 0.259 4.413 0.784l-2.181 2.181z"></path>
<path d="M15.875 19.5c-0.2 0-0.397-0.016-0.588-0.050l-1.597 1.597c0.669 0.291 1.409 0.45 2.184 0.45 3.038 0 5.5-2.462 5.5-5.5 0-0.775-0.159-1.516-0.45-2.184l-1.597 1.597c0.031 0.191 0.050 0.387 0.050 0.588-0.003 1.938-1.569 3.503-3.503 3.503z"></path>
</symbol>
<symbol id="icon-x-close" viewBox="0 0 32 32">
<path stroke-linejoin="round" stroke-linecap="round" stroke-miterlimit="4" stroke-width="2.6667" d="M24 8l-16 16M8 8l16 16"></path>
</symbol>
<symbol id="icon-arrow-left" viewBox="0 0 19 32">
<path fill="none"  stroke-linejoin="round" stroke-linecap="round" stroke-miterlimit="4" stroke-width="4.8" d="M16 28.8l-12.8-12.8 12.8-12.8"></path>
</symbol>
<symbol id="icon-arrow-right" viewBox="0 0 19 32">
<path fill="none" stroke-linejoin="round" stroke-linecap="round" stroke-miterlimit="4" stroke-width="4.8" d="M3.2 3.2l12.8 12.8-12.8 12.8"></path>
</symbol>
<symbol id="icon-arrow-down" viewBox="0 0 30 32">
<path stroke-linejoin="round" stroke-linecap="round" stroke-miterlimit="4" stroke-width="3.3684" d="M7.579 12.211l7.579 7.579 7.579-7.579"></path>
</symbol>
<symbol id="icon-google" viewBox="0 0 33 32">
<path fill="#fff" style="fill: var(--color1, #fff)" d="M1.128 0h32v32h-32v-32z"></path>
<path fill="#4285f4" style="fill: var(--color2, #4285f4)" d="M31.848 16.349c0-1.087-0.097-2.133-0.279-3.136h-14.441v5.931h8.252c-0.355 1.917-1.436 3.541-3.060 4.628v3.847h4.955c2.899-2.669 4.572-6.6 4.572-11.27z"></path>
<path fill="#34a853" style="fill: var(--color3, #34a853)" d="M17.128 31.333c4.14 0 7.611-1.373 10.148-3.715l-4.955-3.847c-1.373 0.92-3.129 1.464-5.192 1.464-3.994 0-7.374-2.697-8.58-6.321h-5.123v3.973c2.523 5.011 7.708 8.447 13.702 8.447z"></path>
<path fill="#fbbc05" style="fill: var(--color4, #fbbc05)" d="M8.548 18.913c-0.307-0.92-0.481-1.903-0.481-2.913s0.174-1.993 0.481-2.913v-3.973h-5.123c-1.038 2.070-1.631 4.412-1.631 6.886s0.592 4.816 1.631 6.886l5.123-3.973z"></path>
<path fill="#ea4335" style="fill: var(--color5, #ea4335)" d="M17.128 6.765c2.251 0 4.272 0.774 5.861 2.293l4.398-4.398c-2.655-2.474-6.126-3.994-10.259-3.994-5.994 0-11.179 3.436-13.702 8.447l5.123 3.973c1.206-3.624 4.586-6.322 8.58-6.322z"></path>
</symbol>
</defs>
</svg>
